<svg xmlns="http://www.w3.org/2000/svg" x="0px" y="0px" width="250px" height="250px">
<circle fill="#FFFFFF" cx="125.03" cy="125.01" r="115.12"/>
<path fill="#004165" d="M242.94,130.73c-1.77-3.63-1.76-7.86,0.01-11.49l5.22-10.67c2.59-5.29,1.32-11.66-3.09-15.56l-8.91-7.86
	c-3.02-2.67-4.64-6.58-4.4-10.61l0.73-11.85c0.36-5.87-3.24-11.26-8.8-13.18l-11.23-3.86c-3.81-1.31-6.81-4.31-8.12-8.12
	l-3.87-11.26c-1.91-5.55-7.28-9.15-13.14-8.81l-12.05,0.71c-4.03,0.23-7.93-1.4-10.59-4.43l-7.71-8.78
	c-3.89-4.43-10.26-5.71-15.56-3.12l-10.65,5.2c-3.62,1.77-7.85,1.77-11.47,0l-10.68-5.21c-5.29-2.58-11.64-1.31-15.53,3.09
	l-7.87,8.91c-2.67,3.02-6.58,4.64-10.6,4.39l-11.9-0.73c-5.85-0.36-11.23,3.22-13.15,8.76l-3.92,11.27
	c-1.31,3.77-4.28,6.74-8.05,8.05l-11.26,3.92c-5.54,1.93-9.11,7.31-8.76,13.16l0.73,11.9c0.25,4.03-1.37,7.94-4.39,10.61L5,93.03
	c-4.41,3.9-5.67,10.25-3.09,15.54l5.21,10.67c1.77,3.63,1.77,7.86-0.01,11.49l-5.27,10.78c-2.56,5.24-1.35,11.55,2.98,15.46
	l9.15,8.27c2.95,2.67,4.53,6.53,4.29,10.5l-0.7,11.56c-0.36,5.87,3.25,11.25,8.8,13.17l11.24,3.86c3.81,1.31,6.81,4.31,8.12,8.12
	l3.88,11.28c1.91,5.54,7.26,9.14,13.11,8.81l11.92-0.68c3.98-0.23,7.85,1.38,10.5,4.35l7.95,8.91c3.9,4.37,10.23,5.62,15.5,3.05
	l10.71-5.23c3.63-1.77,7.86-1.77,11.49,0.01l10.67,5.22c5.29,2.59,11.66,1.32,15.55-3.09l7.86-8.91c2.67-3.02,6.58-4.65,10.61-4.4
	l11.85,0.73c5.87,0.36,11.26-3.24,13.17-8.81l3.86-11.24c1.31-3.81,4.3-6.81,8.12-8.12l11.23-3.86c5.56-1.91,9.17-7.3,8.8-13.18
	l-0.73-11.86c-0.25-4.03,1.37-7.94,4.39-10.61l8.9-7.87c4.4-3.9,5.67-10.25,3.09-15.54L242.94,130.73z M125,237.58
	c-12.76,0-25.02-2.13-36.45-6.04l9.37-29.04c8.48,2.98,17.59,4.6,27.07,4.6c9.49,0,18.61-1.62,27.08-4.6l9.38,29.04
	C150.02,235.46,137.75,237.58,125,237.58z M45.62,125.01c0-43.85,35.54-79.4,79.38-79.4c43.84,0,79.38,35.55,79.38,79.4
	c0,43.85-35.54,79.4-79.38,79.4C81.16,204.41,45.62,168.86,45.62,125.01z M163.99,230.64l-9.38-29.08
	c30.66-11.9,52.46-41.73,52.46-76.56c0-45.27-36.82-82.09-82.07-82.09c-45.25,0-82.06,36.82-82.06,82.09
	c0,34.83,21.81,64.67,52.47,76.57l-9.38,29.07c-42.94-15.86-73.56-57.17-73.56-105.63C12.46,62.83,62.85,12.44,125,12.44
	c62.15,0,112.54,50.4,112.54,112.57C237.54,173.47,206.92,214.77,163.99,230.64z M38.38,160.8c-1.13,0.23-2.25,0.63-3.37,1.2
	c-1.12,0.58-2.1,1.26-2.93,2.04c-0.84,0.78-1.47,1.65-1.91,2.6c-0.44,0.95-0.63,1.99-0.59,3.11c0.05,1.12,0.39,2.31,1.02,3.54
	l3.45,6.71l16.17-8.33l-3.45-6.71c-0.64-1.24-1.4-2.2-2.29-2.89c-0.89-0.69-1.85-1.13-2.88-1.33
	C40.59,160.55,39.51,160.57,38.38,160.8 M45.03,167.25l1.44,2.79l-11.55,5.95l-1.43-2.79c-0.57-1.1-0.89-2.08-0.95-2.94
	c-0.07-0.86,0.06-1.62,0.37-2.28c0.32-0.67,0.79-1.26,1.42-1.76s1.35-0.97,2.17-1.39c0.81-0.42,1.61-0.74,2.39-0.96
	c0.78-0.22,1.53-0.26,2.26-0.13c0.73,0.13,1.42,0.47,2.08,1.02C43.85,165.32,44.46,166.14,45.03,167.25 M41.61,153.11l-5.09-0.4
	l-1.88-7.01l4.21-2.9l-0.88-3.3L22.2,150.99l0.88,3.27l19.38,2.03L41.61,153.11z M25.69,151.87l-0.02-0.07l6.85-4.66l1.44,5.37
	L25.69,151.87z M37.65,136.14l-18.17,0.87l-0.15-3.18l8.27-0.39l-8.66-7.7l-0.19-3.92l7.6,6.91l10.55-8.29l0.19,3.97l-8.39,6.38
	l2.7,2.47l6.11-0.29L37.65,136.14z M21.79,114.2c0.73,0.88,1.63,1.61,2.71,2.2c1.07,0.59,2.25,0.99,3.52,1.2
	c1.29,0.22,2.54,0.22,3.74,0.02c1.21-0.2,2.3-0.6,3.27-1.2c0.98-0.6,1.81-1.38,2.47-2.37c0.67-0.98,1.12-2.14,1.35-3.48
	c0.22-1.34,0.18-2.58-0.14-3.73c-0.32-1.15-0.84-2.16-1.57-3.04c-0.73-0.88-1.63-1.61-2.71-2.2c-1.07-0.58-2.25-0.99-3.54-1.2
	c-1.27-0.21-2.51-0.22-3.72-0.02c-1.2,0.2-2.29,0.6-3.27,1.2c-0.98,0.59-1.81,1.38-2.49,2.36c-0.68,0.98-1.13,2.14-1.36,3.48
	c-0.22,1.34-0.17,2.58,0.15,3.73C20.53,112.31,21.06,113.32,21.79,114.2 M22.62,107.85c0.16-0.95,0.49-1.75,0.99-2.38
	c0.5-0.63,1.11-1.11,1.83-1.44c0.72-0.33,1.51-0.53,2.36-0.6c0.86-0.07,1.71-0.04,2.56,0.11c0.86,0.14,1.68,0.39,2.46,0.74
	c0.78,0.35,1.46,0.79,2.04,1.33c0.57,0.54,0.99,1.2,1.26,1.96c0.27,0.76,0.32,1.62,0.16,2.57c-0.16,0.95-0.49,1.75-0.99,2.38
	c-0.5,0.63-1.11,1.11-1.83,1.44c-0.72,0.33-1.5,0.53-2.36,0.6c-0.86,0.07-1.71,0.04-2.56-0.11c-0.86-0.14-1.68-0.39-2.46-0.74
	c-0.78-0.35-1.46-0.79-2.04-1.33c-0.57-0.54-0.99-1.2-1.26-1.96C22.51,109.67,22.46,108.81,22.62,107.85 M29.51,85.79l14.36,5.66
	l-1.17,2.96l-14.37-5.66l-2.11,5.36l-2.56-1.01l5.39-13.71l2.56,1.01L29.51,85.79z M33.98,70.75l11.78,15.53l1.73-2.8l-3.2-3.99
	l3.83-6.17l4.99,1.09l1.8-2.9l-19.15-3.63L33.98,70.75z M37.54,70.96l8.08,1.81l-2.93,4.72l-5.2-6.46L37.54,70.96z M70.51,49.29
	c1.21,1.42,1.58,3.03,1.1,4.81c-0.47,1.67-1.63,3.12-2.94,4.22c-1.41,1.2-3.18,2.17-5.07,2.26c-1.94,0.09-3.6-0.79-4.93-2.31
	l2.43-2.06c0.75,0.88,1.65,1.47,2.97,1.41c1.16-0.07,2.21-0.68,3.07-1.42c0.79-0.67,1.53-1.54,1.71-2.59c0.13-0.72-0.06-1.41-0.56-2
	c-0.45-0.53-0.9-0.82-1.36-0.87c-0.45-0.05-0.87-0.01-1.24,0.13c-1.45,0.54-3.46,1.61-5.11,2.36c-1.09,0.54-2.42,0.89-3.66,0.6
	c-0.95-0.22-1.7-0.73-2.39-1.52c-1.1-1.27-1.45-2.79-1.03-4.44c0.4-1.55,1.43-2.92,2.64-3.94c1.31-1.11,2.96-1.97,4.7-2.04
	c1.77-0.06,3.23,0.6,4.38,1.96l-2.43,2.06c-0.82-0.84-1.66-1.21-2.52-1.12c-0.86,0.09-1.71,0.5-2.55,1.21
	c-0.58,0.49-1.09,1.1-1.37,1.81c-0.3,0.78-0.19,1.53,0.36,2.15c0.42,0.49,0.9,0.75,1.44,0.77c0.54,0.02,1.12-0.11,1.73-0.38
	c1.64-0.76,3.27-1.55,4.91-2.33c1.03-0.43,2.16-0.57,3.24-0.29C69.01,47.99,69.87,48.53,70.51,49.29z M218.19,128.83
	c-1.87,0.08-3.36-0.62-4.47-2.1c-1.02-1.4-1.45-3.2-1.52-4.91c-0.07-1.85,0.25-3.85,1.34-5.38c1.13-1.58,2.84-2.35,4.85-2.46
	l0.13,3.18c-1.16,0.04-2.17,0.39-2.94,1.47c-0.66,0.96-0.82,2.16-0.78,3.29c0.04,1.03,0.27,2.15,0.98,2.94
	c0.49,0.54,1.15,0.82,1.92,0.79c0.7-0.03,1.2-0.2,1.52-0.53c0.32-0.33,0.54-0.68,0.66-1.06c0.47-1.47,0.86-3.72,1.29-5.48
	c0.24-1.19,0.8-2.46,1.78-3.26c0.76-0.61,1.62-0.89,2.67-0.95c1.68-0.09,3.09,0.58,4.13,1.93c0.97,1.27,1.41,2.93,1.48,4.51
	c0.07,1.71-0.27,3.54-1.28,4.96c-1.05,1.43-2.46,2.18-4.25,2.24l-0.13-3.18c1.17-0.13,1.98-0.56,2.44-1.29
	c0.45-0.73,0.66-1.65,0.62-2.75c-0.03-0.76-0.19-1.54-0.58-2.2c-0.43-0.71-1.09-1.09-1.92-1.05c-0.65,0.02-1.14,0.24-1.49,0.66
	c-0.35,0.41-0.6,0.94-0.76,1.6c-0.41,1.76-0.8,3.53-1.19,5.3c-0.3,1.07-0.88,2.05-1.77,2.73
	C220.13,128.45,219.17,128.79,218.19,128.83z M76.41,33.98l7.48,13.51l-2.79,1.54l-7.48-13.51l-5.04,2.79l-1.33-2.41l12.88-7.14
	l1.33,2.41L76.41,33.98z M89.42,25.23L88.63,44.7l3.12-1.05l0.07-5.11l6.88-2.33l3.16,4.02l3.24-1.09l-12.47-15L89.42,25.23z
	 M91.86,35.97l0.1-8.29l0.07-0.02l5.09,6.54L91.86,35.97z M117.16,21.91l-5.72,0.84l2.24,15.28l-3.15,0.46l-2.24-15.28l-5.7,0.84
	l-0.4-2.72l14.57-2.14L117.16,21.91z M123.88,18.96l13.08,0.61l-0.13,2.75l-9.9-0.46l-0.22,4.76l9.16,0.43l-0.12,2.6l-9.16-0.43
	l-0.25,5.32l10.08,0.47l-0.13,2.75l-13.26-0.62L123.88,18.96z M169.92,28.83l-4.18,10.87c-0.42,1.09-0.95,1.98-1.6,2.66
	c-0.64,0.68-1.38,1.18-2.2,1.49c-0.82,0.31-1.71,0.44-2.67,0.38c-0.96-0.06-1.96-0.29-3.01-0.69c-1.05-0.4-1.95-0.9-2.7-1.5
	c-0.75-0.6-1.33-1.29-1.73-2.07c-0.4-0.78-0.61-1.64-0.63-2.58c-0.02-0.94,0.18-1.95,0.6-3.05l4.18-10.87l2.97,1.14l-3.8,9.9
	c-0.22,0.57-0.41,1.16-0.58,1.77c-0.17,0.61-0.21,1.2-0.13,1.76c0.08,0.57,0.33,1.11,0.75,1.61c0.42,0.51,1.11,0.94,2.08,1.32
	c0.97,0.37,1.77,0.51,2.42,0.41c0.65-0.1,1.19-0.33,1.63-0.7c0.44-0.37,0.8-0.83,1.08-1.4c0.28-0.57,0.53-1.13,0.75-1.71l3.8-9.9
	L169.92,28.83z M190.33,41.38l-10.19,15.08l-2.79-1.88l0.63-15.73l-0.06-0.04l-7.49,11.09l-2.51-1.7l10.19-15.08l2.79,1.88
	l-0.63,15.76l0.04,0.03l7.51-11.11L190.33,41.38z M198.96,49.26l-12.52,13.21l-2.31-2.19l12.51-13.21L198.96,49.26z M205.62,56.25
	l-8.53,12.46l0.03,0.04l14.21-5.19l1.99,2.55l-18.16,6.31l-2.18-2.79l10.6-15.99L205.62,56.25z M200.69,80.34l16.26-8.16l5.87,11.71
	l-2.46,1.23l-4.45-8.86l-4.26,2.14l4.11,8.2l-2.32,1.17l-4.11-8.2l-4.76,2.39l4.52,9.02l-2.46,1.23L200.69,80.34z M208.94,99.33
	l7.25-1.88l1.17,4.54c0.18,0.71,0.24,1.31,0.18,1.81c-0.06,0.5-0.26,0.93-0.58,1.29c-0.32,0.36-0.76,0.67-1.31,0.92
	c-0.56,0.25-1.24,0.48-2.05,0.69c-0.43,0.11-0.87,0.24-1.32,0.4c-0.45,0.16-0.83,0.4-1.15,0.73l0.85,3.3
	c0.28-0.42,0.82-0.82,1.62-1.2c0.81-0.37,1.73-0.7,2.76-0.96c0.69-0.18,1.24-0.41,1.66-0.71c0.41-0.29,0.73-0.61,0.95-0.94
	c0.22-0.34,0.36-0.67,0.41-1.01c0.05-0.34,0.06-0.64,0.03-0.92l0.05-0.01c0.09,0.13,0.25,0.34,0.48,0.63
	c0.23,0.28,0.56,0.54,0.98,0.79c0.42,0.24,0.94,0.41,1.56,0.52c0.62,0.1,1.34,0.05,2.18-0.17c1.49-0.39,2.54-1.17,3.13-2.36
	c0.59-1.19,0.63-2.75,0.13-4.69l-2.17-8.41l-17.61,4.55L208.94,99.33z M224.04,95.43l1.3,5.01c0.1,0.39,0.17,0.79,0.2,1.17
	c0.03,0.39-0.02,0.75-0.14,1.09c-0.12,0.34-0.34,0.64-0.65,0.89c-0.31,0.25-0.75,0.46-1.31,0.6c-0.94,0.24-1.71,0.17-2.31-0.22
	c-0.6-0.39-1.03-1.07-1.28-2.06l-1.31-5.06L224.04,95.43z M212.29,133.64l18.07,2.08l-0.36,3.17l-18.07-2.08L212.29,133.64z
	 M226.55,144.63l2.66,0.71l-3.79,14.23l-2.66-0.71l1.49-5.59l-14.92-3.98l0.82-3.08l14.92,3.98L226.55,144.63z M210.29,166.63
	l12.95-1.08l-1.67,3.3l-9.45,0.6l5.12,7.92l-1.62,3.18l-6.78-11.08l-6.36-3.23l1.44-2.84L210.29,166.63z M63.44,155.72l-7.66,3.24
	l-0.54-1.28l5.91-2.5l-0.01-0.02l-6.81,0.37l-0.47-1.11l5.02-4.62l-0.01-0.02l-5.91,2.5L52.42,151l7.66-3.24l0.8,1.89l-5.1,4.65
	l0.01,0.02l6.87-0.48L63.44,155.72z M65.8,159.79l-8.77,1.57l0.78,1.29l2.29-0.47l1.72,2.84l-1.48,1.81l0.81,1.34l5.47-7.04
	L65.8,159.79z M62.56,164.12l-1.31-2.18l3.71-0.77l0.02,0.03L62.56,164.12z M71.51,172.13c0.31-0.43,0.51-0.87,0.63-1.34
	c0.11-0.47,0.1-0.95-0.02-1.45c-0.12-0.5-0.38-1-0.77-1.5l-2.15-2.7l-6.51,5.18l2.15,2.7c0.4,0.5,0.82,0.86,1.29,1.09
	c0.46,0.23,0.93,0.34,1.41,0.34c0.48-0.01,0.96-0.11,1.45-0.31c0.48-0.2,0.95-0.48,1.4-0.84C70.83,172.95,71.21,172.56,71.51,172.13
	 M69.47,172.17c-0.33,0.26-0.66,0.48-0.99,0.64c-0.33,0.17-0.66,0.25-1,0.26c-0.34,0.01-0.68-0.08-1.02-0.27
	c-0.34-0.19-0.69-0.5-1.04-0.95l-0.89-1.12l4.65-3.7l0.89,1.12c0.35,0.44,0.58,0.85,0.69,1.23c0.1,0.38,0.12,0.73,0.04,1.06
	c-0.08,0.33-0.24,0.63-0.48,0.91C70.08,171.64,69.8,171.91,69.47,172.17 M76.19,173.3l-5.98,5.79l-1.01-1.05l5.98-5.79L76.19,173.3z
	 M79.9,180.03c0.32-0.43,0.43-0.84,0.33-1.22c-0.1-0.38-0.34-0.74-0.73-1.07c-0.13-0.11-0.28-0.21-0.43-0.3
	c-0.16-0.09-0.32-0.15-0.48-0.19c-0.17-0.03-0.33-0.03-0.5,0.01c-0.16,0.04-0.31,0.14-0.45,0.3c-0.19,0.22-0.28,0.46-0.25,0.7
	c0.03,0.25,0.13,0.5,0.3,0.76c0.02,0.03,0.09,0.13,0.21,0.32c0.12,0.18,0.26,0.39,0.42,0.61c0.16,0.22,0.31,0.45,0.45,0.66
	c0.15,0.22,0.25,0.37,0.32,0.46c0.15,0.24,0.25,0.49,0.31,0.73c0.06,0.24,0.07,0.48,0.05,0.72c-0.02,0.23-0.08,0.45-0.17,0.66
	c-0.09,0.21-0.21,0.39-0.35,0.56c-0.31,0.35-0.64,0.59-1,0.72c-0.36,0.13-0.73,0.17-1.1,0.12c-0.37-0.04-0.74-0.16-1.1-0.34
	c-0.36-0.19-0.7-0.41-1.01-0.68c-0.36-0.31-0.66-0.64-0.9-1.01c-0.24-0.36-0.4-0.74-0.48-1.12c-0.08-0.38-0.06-0.78,0.04-1.19
	c0.1-0.41,0.32-0.81,0.65-1.2l1.11,0.95c-0.21,0.24-0.35,0.48-0.41,0.73c-0.07,0.24-0.07,0.48-0.02,0.72
	c0.05,0.24,0.16,0.46,0.3,0.68c0.15,0.21,0.33,0.42,0.56,0.61c0.24,0.21,0.47,0.36,0.69,0.45c0.22,0.09,0.42,0.14,0.6,0.14
	c0.18,0.01,0.35-0.03,0.49-0.1c0.15-0.07,0.27-0.17,0.37-0.29c0.21-0.24,0.31-0.47,0.3-0.67c-0.01-0.21-0.06-0.39-0.15-0.55
	c-0.15-0.27-0.35-0.58-0.58-0.91c-0.23-0.33-0.52-0.74-0.85-1.23c-0.21-0.31-0.35-0.59-0.44-0.86c-0.08-0.27-0.11-0.52-0.1-0.75
	c0.02-0.23,0.07-0.45,0.16-0.64c0.09-0.2,0.21-0.38,0.35-0.54c0.27-0.32,0.58-0.54,0.91-0.65c0.33-0.12,0.67-0.16,1.02-0.12
	c0.35,0.04,0.7,0.13,1.03,0.3c0.34,0.17,0.65,0.37,0.93,0.61c0.33,0.29,0.6,0.6,0.82,0.93c0.22,0.34,0.36,0.68,0.44,1.05
	s0.07,0.72-0.02,1.08c-0.09,0.36-0.27,0.71-0.55,1.04L79.9,180.03z M89.17,184.95c-0.07-0.52-0.24-1.01-0.53-1.48
	c-0.29-0.47-0.68-0.87-1.2-1.21c-0.52-0.34-1.05-0.55-1.59-0.63c-0.54-0.08-1.06-0.04-1.57,0.1s-0.98,0.39-1.42,0.73
	c-0.44,0.34-0.82,0.76-1.15,1.25c-0.33,0.5-0.56,1.02-0.7,1.56c-0.14,0.54-0.17,1.07-0.1,1.59c0.07,0.52,0.24,1.01,0.53,1.47
	c0.29,0.46,0.69,0.87,1.21,1.21c0.52,0.34,1.05,0.55,1.58,0.63c0.54,0.08,1.06,0.05,1.56-0.09c0.5-0.14,0.98-0.38,1.42-0.73
	c0.44-0.34,0.83-0.76,1.16-1.26c0.33-0.49,0.55-1.01,0.69-1.55C89.2,186,89.24,185.47,89.17,184.95 M87.67,186.24
	c-0.13,0.37-0.3,0.72-0.52,1.05c-0.22,0.33-0.47,0.63-0.76,0.89c-0.29,0.26-0.6,0.47-0.94,0.6c-0.33,0.14-0.68,0.2-1.05,0.17
	c-0.37-0.03-0.74-0.16-1.11-0.41c-0.37-0.24-0.64-0.53-0.81-0.86c-0.17-0.33-0.26-0.67-0.26-1.03c-0.01-0.36,0.06-0.73,0.19-1.1
	c0.13-0.37,0.3-0.72,0.52-1.05c0.22-0.33,0.47-0.63,0.76-0.89c0.29-0.26,0.6-0.47,0.93-0.61c0.33-0.14,0.68-0.19,1.05-0.17
	c0.37,0.03,0.74,0.16,1.11,0.41c0.37,0.24,0.64,0.53,0.81,0.86c0.17,0.33,0.26,0.67,0.26,1.03
	C87.86,185.51,87.8,185.87,87.67,186.24 M97.28,187.89l1.25,0.6L94.95,196l-1.39-0.66l-0.78-7.15l-0.03-0.02l-2.64,5.52l-1.25-0.6
	l3.58-7.51l1.39,0.66l0.79,7.17l0.02,0.01L97.28,187.89z M102.79,194.84l5.62,1.54l-0.33,1.21l-5.62-1.54L102.79,194.84z
	 M117.07,194.47c-0.16,0.07-0.29,0.17-0.4,0.3c-0.11,0.13-0.18,0.3-0.2,0.51c-0.03,0.29,0.04,0.53,0.21,0.72
	c0.17,0.19,0.39,0.33,0.68,0.45c0.03,0.01,0.15,0.05,0.35,0.13c0.21,0.08,0.44,0.17,0.69,0.26c0.26,0.1,0.51,0.19,0.75,0.28
	c0.24,0.09,0.42,0.16,0.53,0.2c0.26,0.11,0.49,0.25,0.67,0.42c0.19,0.17,0.34,0.35,0.46,0.55c0.12,0.2,0.2,0.41,0.24,0.64
	c0.05,0.22,0.06,0.44,0.04,0.66c-0.04,0.46-0.18,0.85-0.4,1.16c-0.22,0.31-0.5,0.56-0.83,0.73c-0.33,0.18-0.7,0.3-1.1,0.36
	c-0.4,0.06-0.81,0.07-1.22,0.03c-0.47-0.05-0.91-0.15-1.32-0.3c-0.41-0.16-0.75-0.37-1.04-0.64c-0.29-0.27-0.5-0.6-0.65-1
	c-0.15-0.39-0.2-0.85-0.16-1.36l1.45,0.14c-0.03,0.32,0,0.59,0.08,0.83c0.09,0.23,0.22,0.43,0.4,0.6c0.18,0.16,0.39,0.29,0.64,0.38
	c0.24,0.09,0.51,0.15,0.81,0.18c0.32,0.03,0.59,0.02,0.82-0.03c0.23-0.05,0.42-0.13,0.57-0.23c0.15-0.1,0.26-0.23,0.34-0.37
	c0.08-0.15,0.12-0.3,0.14-0.45c0.03-0.32-0.02-0.56-0.15-0.72c-0.13-0.16-0.27-0.29-0.44-0.36c-0.28-0.14-0.62-0.27-1-0.41
	c-0.38-0.13-0.85-0.31-1.41-0.52c-0.35-0.13-0.63-0.28-0.85-0.45c-0.22-0.17-0.39-0.36-0.51-0.56c-0.12-0.2-0.2-0.4-0.24-0.62
	c-0.04-0.21-0.05-0.43-0.03-0.65c0.04-0.42,0.16-0.77,0.37-1.06c0.2-0.29,0.46-0.52,0.76-0.69s0.64-0.29,1.02-0.35
	c0.37-0.06,0.75-0.07,1.12-0.04c0.43,0.04,0.84,0.14,1.21,0.29c0.37,0.15,0.69,0.35,0.96,0.6c0.27,0.25,0.47,0.55,0.61,0.9
	c0.14,0.34,0.19,0.73,0.15,1.17l-1.45-0.14c0.02-0.54-0.13-0.93-0.43-1.18c-0.31-0.25-0.71-0.4-1.21-0.45
	c-0.17-0.02-0.35-0.02-0.53,0C117.39,194.36,117.22,194.41,117.07,194.47 M127.43,202.17c0.62-0.02,1.17-0.15,1.66-0.39
	c0.49-0.24,0.89-0.57,1.22-0.98c0.33-0.41,0.58-0.88,0.74-1.41c0.17-0.53,0.24-1.1,0.22-1.7c-0.02-0.59-0.13-1.15-0.32-1.67
	c-0.2-0.52-0.48-0.98-0.83-1.36c-0.35-0.39-0.78-0.69-1.28-0.9c-0.5-0.22-1.06-0.32-1.68-0.3c-0.62,0.02-1.17,0.15-1.66,0.4
	c-0.48,0.25-0.89,0.58-1.22,0.98c-0.33,0.4-0.58,0.88-0.74,1.41c-0.17,0.53-0.24,1.09-0.22,1.69c0.02,0.6,0.12,1.16,0.33,1.68
	c0.2,0.52,0.47,0.98,0.83,1.36c0.35,0.38,0.78,0.68,1.28,0.9C126.24,202.09,126.8,202.19,127.43,202.17 M124.95,199.05
	c-0.11-0.38-0.17-0.76-0.18-1.16c-0.01-0.39,0.02-0.78,0.11-1.17c0.09-0.38,0.22-0.73,0.42-1.03c0.19-0.31,0.45-0.55,0.76-0.74
	c0.32-0.19,0.7-0.29,1.14-0.3c0.44-0.01,0.82,0.06,1.16,0.23c0.33,0.17,0.6,0.4,0.81,0.69c0.21,0.29,0.37,0.63,0.48,1.01
	c0.11,0.38,0.17,0.76,0.18,1.16c0.01,0.39-0.03,0.78-0.11,1.17c-0.09,0.38-0.23,0.73-0.42,1.03c-0.19,0.31-0.45,0.55-0.76,0.74
	c-0.32,0.19-0.7,0.29-1.14,0.3c-0.44,0.01-0.83-0.06-1.16-0.23c-0.33-0.17-0.6-0.4-0.81-0.69S125.05,199.43,124.95,199.05
	 M140.69,197.43c0.09,0.53,0.08,1-0.01,1.42c-0.09,0.42-0.27,0.78-0.52,1.1c-0.25,0.31-0.57,0.57-0.96,0.77
	c-0.39,0.2-0.84,0.34-1.35,0.43c-0.51,0.08-0.98,0.1-1.41,0.04c-0.44-0.06-0.82-0.2-1.16-0.41c-0.34-0.22-0.62-0.51-0.85-0.87
	c-0.23-0.36-0.38-0.81-0.47-1.34l-0.88-5.25l1.44-0.24l0.8,4.78c0.05,0.28,0.11,0.55,0.18,0.83c0.07,0.28,0.19,0.52,0.36,0.73
	c0.16,0.21,0.39,0.36,0.67,0.46c0.28,0.1,0.65,0.11,1.12,0.04c0.47-0.08,0.82-0.21,1.05-0.4c0.23-0.19,0.39-0.4,0.48-0.65
	c0.09-0.25,0.12-0.51,0.1-0.8s-0.05-0.57-0.1-0.85l-0.8-4.78l1.44-0.24L140.69,197.43z M148.22,191.09l-2.54,0.75l2.02,6.77
	l-1.4,0.42l-2.02-6.77l-2.52,0.75l-0.36-1.21l6.45-1.92L148.22,191.09z M155.56,186.61l3.34,7.63l-1.34,0.58l-1.5-3.44l-3.47,1.52
	l1.5,3.44l-1.33,0.58l-3.34-7.62l1.33-0.58l1.33,3.03l3.47-1.52l-1.33-3.03L155.56,186.61z M169.62,182.69
	c-0.33-0.47-0.7-0.87-1.1-1.21c-0.41-0.33-0.84-0.57-1.3-0.71c-0.46-0.14-0.94-0.17-1.45-0.08c-0.51,0.09-1.02,0.31-1.55,0.68
	l-2.83,1.97l4.75,6.83l2.83-1.97c0.52-0.36,0.91-0.77,1.17-1.21c0.26-0.45,0.4-0.91,0.43-1.39c0.03-0.48-0.04-0.96-0.21-1.46
	C170.2,183.65,169.95,183.16,169.62,182.69 M168.86,186.57c-0.21,0.33-0.55,0.66-1.01,0.98l-1.18,0.82l-3.39-4.88l1.18-0.82
	c0.47-0.32,0.89-0.53,1.27-0.61c0.38-0.08,0.74-0.07,1.06,0.03c0.32,0.1,0.62,0.28,0.88,0.53c0.27,0.25,0.52,0.56,0.76,0.9
	c0.24,0.35,0.43,0.69,0.58,1.03c0.15,0.34,0.21,0.68,0.19,1.01C169.18,185.9,169.07,186.24,168.86,186.57 M170.26,176.65l3.18,8.33
	l1.12-1.01l-0.89-2.16l2.47-2.22l2.05,1.12l1.16-1.04l-7.94-4.05L170.26,176.65z M171.79,177.2l3.32,1.83l-1.89,1.7l-1.45-3.5
	L171.79,177.2z M179.76,171.72l6.11,0.59l-1.19,1.37l-4.79-0.54l0.11,1.67l2.12,1.83l-0.95,1.1l-6.29-5.45l0.95-1.1l2.86,2.48
	l-0.44-5.28l1.17-1.36L179.76,171.72z M182.01,162.9c-0.34,0.52-0.56,1.05-0.64,1.59c-0.08,0.54-0.05,1.06,0.09,1.57
	c0.14,0.5,0.38,0.98,0.72,1.42c0.34,0.44,0.75,0.83,1.25,1.16c0.5,0.33,1.02,0.57,1.56,0.71c0.54,0.14,1.07,0.18,1.59,0.11
	c0.52-0.07,1.01-0.24,1.47-0.52c0.46-0.29,0.87-0.68,1.21-1.2c0.34-0.52,0.56-1.04,0.64-1.58c0.08-0.54,0.05-1.06-0.09-1.56
	c-0.14-0.5-0.38-0.98-0.72-1.42c-0.34-0.45-0.76-0.83-1.26-1.17c-0.49-0.33-1.01-0.56-1.55-0.7c-0.54-0.14-1.07-0.18-1.59-0.11
	c-0.52,0.07-1.01,0.24-1.48,0.52C182.76,161.98,182.36,162.38,182.01,162.9 M183.86,162.75c0.33-0.17,0.67-0.25,1.03-0.26
	c0.36,0,0.73,0.06,1.1,0.19c0.37,0.13,0.72,0.31,1.05,0.52c0.33,0.22,0.63,0.48,0.89,0.77c0.26,0.29,0.47,0.61,0.6,0.94
	c0.14,0.33,0.19,0.68,0.16,1.05c-0.03,0.37-0.17,0.74-0.41,1.11c-0.25,0.37-0.53,0.64-0.86,0.81c-0.33,0.17-0.67,0.25-1.03,0.26
	c-0.36,0-0.73-0.06-1.1-0.19c-0.37-0.13-0.72-0.31-1.05-0.52c-0.33-0.22-0.63-0.48-0.89-0.77c-0.26-0.29-0.46-0.6-0.6-0.94
	c-0.14-0.33-0.19-0.68-0.16-1.05c0.03-0.37,0.17-0.74,0.41-1.1C183.25,163.19,183.53,162.92,183.86,162.75 M186.02,159.31
	l-1.13-0.56l3.01-6.02l1.13,0.56l-1.18,2.37l6.31,3.16l-0.65,1.3l-6.31-3.16L186.02,159.31z M196.22,154.32l-1.79-1.5l1.16-3.11
	l2.33,0.04l0.55-1.46l-8.91,0.08l-0.54,1.45l6.67,5.91L196.22,154.32z M193.54,152.05l-2.91-2.43l0.01-0.03l3.79,0.08L193.54,152.05
	z M102.89,211.78c0.4-0.28,0.72-0.67,0.94-1.17l2.27,0.55l-4.16,17.07l-3.05-0.74l2.93-12.05l-4.19-1.02l0.53-2.2
	c0.59,0.14,1.17,0.23,1.74,0.27c0.58,0.04,1.12,0,1.62-0.12C102.03,212.26,102.48,212.06,102.89,211.78 M120.21,221.25l0.01-0.05
	c0.82-0.23,1.47-0.65,1.95-1.24s0.75-1.31,0.82-2.16c0.12-1.5-0.25-2.71-1.13-3.63c-0.88-0.92-2.19-1.45-3.94-1.59
	c-1.75-0.14-3.13,0.17-4.14,0.93c-1.01,0.76-1.58,1.9-1.7,3.4c-0.07,0.85,0.08,1.61,0.46,2.27c0.37,0.66,0.95,1.17,1.72,1.54l0,0.05
	c-1.01,0.17-1.83,0.61-2.46,1.31c-0.64,0.7-1,1.61-1.09,2.71c-0.07,0.85,0.02,1.63,0.27,2.34c0.25,0.71,0.63,1.32,1.15,1.84
	c0.51,0.52,1.14,0.94,1.88,1.25c0.74,0.31,1.55,0.5,2.43,0.58c0.88,0.07,1.72,0.02,2.5-0.17c0.78-0.19,1.46-0.5,2.05-0.93
	c0.59-0.43,1.06-0.97,1.43-1.63c0.36-0.66,0.58-1.41,0.65-2.27c0.09-1.1-0.12-2.05-0.64-2.85
	C121.91,222.15,121.17,221.58,120.21,221.25 M115.73,215.36c0.57-0.41,1.24-0.59,2.01-0.53c0.77,0.06,1.4,0.34,1.89,0.85
	c0.5,0.5,0.71,1.19,0.64,2.05c-0.07,0.84-0.38,1.45-0.93,1.85c-0.55,0.4-1.23,0.57-2.03,0.5c-0.8-0.07-1.44-0.34-1.92-0.82
	c-0.48-0.48-0.69-1.14-0.62-1.98C114.84,216.41,115.16,215.77,115.73,215.36 M119.07,227.88c-0.68,0.51-1.49,0.74-2.45,0.66
	c-0.95-0.08-1.72-0.43-2.31-1.04c-0.59-0.62-0.84-1.45-0.75-2.48c0.08-0.97,0.46-1.7,1.14-2.19c0.68-0.49,1.49-0.7,2.44-0.62
	c0.95,0.08,1.72,0.41,2.31,1.01c0.59,0.59,0.84,1.37,0.76,2.34C120.13,226.59,119.75,227.37,119.07,227.88 M139.57,221.92
	c-0.64-0.7-1.47-1.12-2.47-1.28l-0.01-0.05c0.77-0.37,1.34-0.89,1.71-1.56c0.37-0.66,0.51-1.42,0.43-2.27
	c-0.14-1.5-0.72-2.63-1.74-3.38c-1.02-0.75-2.4-1.05-4.15-0.89s-3.06,0.71-3.92,1.64c-0.86,0.93-1.22,2.14-1.08,3.64
	c0.08,0.85,0.36,1.57,0.85,2.15c0.48,0.59,1.14,0.99,1.97,1.22l0,0.05c-0.96,0.34-1.69,0.91-2.19,1.72c-0.51,0.8-0.71,1.76-0.6,2.86
	c0.08,0.85,0.3,1.6,0.68,2.26c0.37,0.65,0.85,1.19,1.45,1.62c0.6,0.42,1.28,0.73,2.06,0.9c0.78,0.18,1.61,0.23,2.5,0.15
	c0.88-0.08,1.69-0.29,2.43-0.61s1.35-0.74,1.86-1.27c0.5-0.53,0.88-1.15,1.12-1.86c0.25-0.71,0.33-1.49,0.25-2.34
	C140.59,223.51,140.22,222.61,139.57,221.92 M131.05,217.67c-0.08-0.87,0.12-1.55,0.61-2.06c0.49-0.51,1.12-0.8,1.88-0.87
	c0.77-0.07,1.44,0.1,2.01,0.51c0.58,0.41,0.9,1.04,0.99,1.91c0.08,0.83-0.12,1.49-0.6,1.98c-0.48,0.49-1.11,0.77-1.91,0.85
	c-0.8,0.08-1.48-0.08-2.03-0.48C131.44,219.11,131.12,218.5,131.05,217.67 M137.12,227.36c-0.58,0.63-1.34,0.98-2.29,1.07
	c-0.95,0.09-1.77-0.12-2.45-0.63c-0.68-0.51-1.08-1.28-1.17-2.31c-0.09-0.96,0.16-1.75,0.74-2.35c0.58-0.6,1.35-0.94,2.3-1.03
	c0.95-0.09,1.77,0.11,2.45,0.59c0.68,0.48,1.07,1.21,1.16,2.17C137.94,225.91,137.7,226.74,137.12,227.36 M149.61,209.77l4.55,16.97
	l-3.03,0.81l-3.22-11.98l-4.17,1.12l-0.59-2.18c0.58-0.16,1.13-0.36,1.66-0.6c0.52-0.24,0.98-0.54,1.36-0.89
	c0.38-0.34,0.68-0.74,0.9-1.18c0.22-0.44,0.31-0.93,0.27-1.48L149.61,209.77z M130.44,58.09c-0.31-0.2-0.39-0.61-0.19-0.92l4.32-6.6
	c0.2-0.31,0.61-0.39,0.92-0.19c0.31,0.2,0.39,0.61,0.19,0.92l-4.32,6.6c-0.13,0.2-0.34,0.3-0.56,0.3
	C130.68,58.2,130.55,58.17,130.44,58.09 M132.78,63.86c0.12,0.2,0.34,0.32,0.57,0.32c0.12,0,0.24-0.03,0.35-0.1l8.97-5.49
	c0.31-0.19,0.41-0.6,0.22-0.91c-0.19-0.31-0.6-0.41-0.91-0.22L133,62.94C132.69,63.13,132.59,63.54,132.78,63.86 M133.43,68.78
	c-0.02,0.37,0.27,0.67,0.64,0.69l11.59,0.44h0.03c0.35,0,0.65-0.28,0.66-0.64c0.02-0.37-0.27-0.67-0.64-0.69l-11.58-0.44
	C133.74,68.1,133.44,68.41,133.43,68.78 M115.04,57.9c0.13,0.2,0.34,0.3,0.55,0.3c0.13,0,0.25-0.04,0.36-0.11
	c0.31-0.2,0.39-0.61,0.19-0.92l-4.32-6.6c-0.2-0.31-0.61-0.39-0.92-0.19c-0.31,0.2-0.39,0.61-0.19,0.92L115.04,57.9z M103.73,58.59
	l8.97,5.49c0.11,0.06,0.23,0.1,0.35,0.1c0.22,0,0.44-0.11,0.57-0.32c0.19-0.31,0.09-0.72-0.22-0.91l-8.97-5.49
	c-0.31-0.19-0.72-0.09-0.91,0.22C103.32,57.99,103.42,58.4,103.73,58.59 M100.72,69.91h0.03l11.59-0.44
	c0.36-0.02,0.65-0.32,0.64-0.69c-0.01-0.37-0.32-0.64-0.69-0.64l-11.59,0.44c-0.37,0.02-0.65,0.32-0.64,0.69
	C100.07,69.63,100.37,69.91,100.72,69.91 M113.78,74.97l-9.85,6.68c-0.3,0.21-0.38,0.62-0.18,0.92c0.13,0.19,0.34,0.29,0.55,0.29
	c0.13,0,0.26-0.04,0.37-0.11l9.85-6.68c0.3-0.21,0.38-0.62,0.18-0.92C114.5,74.84,114.08,74.76,113.78,74.97 M182.43,75.82
	c-2.17-2.09-6-2.97-11.41-2.58c-10.95,0.76-19.91,4.64-28.56,8.42l-9.85-6.68c-0.3-0.22-0.73-0.13-0.92,0.18
	c-0.21,0.31-0.13,0.71,0.18,0.92l9.15,6.19c-0.92,0.4-1.83,0.8-2.74,1.19c-2.41,1.02-5.03,2.09-7.82,3.15
	c-0.06-0.1-0.12-0.2-0.21-0.29c1.18-0.08,2.12-1.06,2.12-2.26c0-0.55-0.21-1.08-0.55-1.47c1.18-0.08,2.12-1.06,2.12-2.25
	c0-1.25-1.02-2.27-2.27-2.27h-6.38c1.53-1.73,3.81-4.84,4.4-8.54c0.85-5.28-3.78-13.01-3.97-13.31c-0.01-0.03-1.5-2.76-1.64-4.63
	c-0.02-0.34-0.34-0.62-0.69-0.62c-0.35,0-0.68,0.28-0.71,0.62c-0.13,1.86-1.62,4.6-1.62,4.6c-0.21,0.33-4.84,8.06-4,13.34
	c0.6,3.7,2.88,6.81,4.4,8.54h-6.7c-1.25,0-2.27,1.02-2.27,2.27c0,1.19,0.94,2.17,2.12,2.25c-0.35,0.39-0.57,0.91-0.57,1.47
	c0,1.2,0.94,2.18,2.13,2.26c-0.34,0.39-0.57,0.91-0.57,1.47c0,1.25,1.02,2.27,2.28,2.27l0.03,0.92
	c-10.84,3.38-22.98,6.11-34.86,6.66c-3.23,0.14-5.92,0.11-8.19-0.04v-6.69c0-0.05-0.02-0.09-0.04-0.13
	c0.02-0.84-0.22-1.58-0.73-2.16c-1.01-1.14-2.87-1.62-5.73-1.5c-6.01,0.26-6.69,4.17-6.76,4.74c-0.03,0.16-0.09,0.68,0.08,1.35
	l3.82,55.34c0.01,0.07,0.54,8.41,11.15,9.3c2.59,0.22,4.97,0.39,7.42,0.39c7.01,0,14.72-1.38,30.29-6.89
	c1.76-0.62,3.51-1.27,5.26-1.95l0.64,22.09h-5.51c-1.25,0-2.27,1.01-2.27,2.27c0,1.26,1.02,2.27,2.27,2.27h5.65l0.31,10.95
	c0.05,1.36,1.15,2.44,2.51,2.44c1.36,0,2.46-1.07,2.51-2.44l0.31-10.95h5.61c1.24,0,2.27-1.01,2.27-2.27c0-1.26-1.02-2.27-2.27-2.27
	h-5.48l0.73-24.93c1.52-0.61,3.03-1.22,4.53-1.82c14.11-5.7,27.43-11.08,37.51-10.58c-0.02,2.29-0.03,3.7-0.03,3.86
	c0,0.59,0.21,5.82,7.73,5.82c7.12,0,7.45-5.49,7.46-5.58V79.41C184.13,79.24,184.13,77.46,182.43,75.82z M121.38,75.83
	c0-0.01-0.01-0.02-0.02-0.03c-0.28-0.52-1.6-3.26-0.66-5.92c0.35-1,0.74-1.79,1.09-2.57c0.78-1.62,1.45-3.04,1.29-5.27
	c-0.03-0.37-0.34-0.65-0.71-0.62c-0.36,0.03-0.65,0.34-0.62,0.71c0.13,1.88-0.4,3.03-1.16,4.62c-0.37,0.76-0.78,1.64-1.15,2.7
	c-0.27,0.77-0.39,1.55-0.39,2.28c-0.31-0.75-0.54-1.56-0.66-2.38c-0.77-4.81,3.77-12.36,3.82-12.46c0.04-0.07,0.68-1.22,1.18-2.6
	c0.5,1.38,1.14,2.54,1.19,2.62c0.04,0.08,4.59,7.63,3.81,12.45c-0.19,1.16-0.57,2.28-1.03,3.29c0.06-1.06,0.02-2.27-0.3-3.54
	c-1.01-4.08-1.29-5.27-1.29-5.27c-0.08-0.3-0.34-0.51-0.68-0.49c-0.32,0.02-0.59,0.25-0.63,0.58c-0.01,0.03-0.39,2.98-1.41,4.61
	c-0.19,0.31-0.1,0.72,0.22,0.91c0.31,0.19,0.72,0.09,0.91-0.21c0.41-0.66,0.73-1.5,0.98-2.29c0.16,0.67,0.37,1.5,0.61,2.49
	c0.82,3.36-0.4,6.23-0.68,6.83c-0.01,0.01-0.01,0.02-0.01,0.02c-0.65,0.81-1.25,1.45-1.62,1.84l-0.07,0.07l-0.07-0.07
	C122.87,77.64,122.13,76.85,121.38,75.83z M113.84,80.35c0-0.52,0.41-0.94,0.93-0.94h16.91c0.51,0,0.94,0.42,0.94,0.94
	c0,0.51-0.43,0.94-0.94,0.94h-16.91C114.25,81.29,113.84,80.86,113.84,80.35z M115.4,84.07c0-0.51,0.42-0.94,0.93-0.94h13.78
	c0.52,0,0.94,0.43,0.94,0.94c0,0.52-0.42,0.94-0.94,0.94h-13.78C115.82,85.02,115.4,84.59,115.4,84.07z M117.86,88.73L117.86,88.73
	c-0.5-0.01-0.91-0.42-0.91-0.92c0-0.52,0.42-0.94,0.94-0.94h10.65c0.25,0,0.47,0.09,0.63,0.25c0.2,0.17,0.31,0.41,0.31,0.69
	c0,0.32-0.16,0.59-0.41,0.76c-0.12,0.08-0.25,0.13-0.4,0.15c-0.02,0.01-0.04,0.01-0.05,0.01H117.86z M62.95,91.99
	c0.03-0.32,0.46-3.31,5.48-3.53c0.26-0.02,0.51-0.02,0.75-0.02c2.44,0,3.49,0.57,3.93,1.08c0.37,0.41,0.5,0.97,0.37,1.69
	c-0.11,0.64-0.49,1.22-1.05,1.6c-0.47,0.33-1.29,0.65-2.51,0.41c-1.55-0.32-1.91-1.7-1.92-1.75c-0.08-0.33-0.39-0.55-0.73-0.51
	c-0.33,0.04-0.58,0.32-0.58,0.66v4.47c-1.66-0.64-2.57-1.36-3.07-1.96c-0.34-0.39-0.52-0.76-0.62-1.08L62.95,91.99z M73.55,93.6
	v3.91c-2.33-0.22-4.16-0.57-5.57-0.99c0.03-0.07,0.05-0.15,0.05-0.21v-2.54c0.41,0.32,0.94,0.6,1.63,0.75
	c1.69,0.35,2.84-0.15,3.52-0.61C73.32,93.82,73.43,93.71,73.55,93.6z M113.94,150.12c-20.79,7.35-27.35,7.25-37.16,6.43
	c-9.42-0.79-9.9-7.76-9.92-8.06l-3.67-52.93c1.96,1.77,6.32,3.51,15.86,3.51c1.26,0,2.62-0.03,4.07-0.1
	c11.88-0.53,24.01-3.26,34.85-6.61l1.24,42.16c-0.37-0.39-0.95-0.54-1.49-0.31l-0.21,0.09c-0.67,0.28-1,1.06-0.71,1.73
	c0.22,0.51,0.71,0.82,1.23,0.82c0.17,0,0.35-0.04,0.51-0.11l0.2-0.08c0.21-0.08,0.38-0.21,0.5-0.38l0.35,11.76
	C117.71,148.76,115.82,149.46,113.94,150.12z M114.77,174.72c-0.52,0-0.93-0.41-0.93-0.93c0-0.52,0.41-0.94,0.93-0.94h5.55
	l0.06,1.87H114.77z M131.68,172.85c0.51,0,0.94,0.42,0.94,0.94c0,0.52-0.43,0.93-0.94,0.93h-5.58l0.06-1.87H131.68z M124.43,186.97
	c-0.02,0.64-0.55,1.15-1.18,1.15c-0.64,0-1.16-0.51-1.17-1.15l-2.84-96.9h8.03L124.43,186.97z M182.8,138.26
	c-0.01,0.18-0.31,4.29-6.13,4.29c-6.1,0-6.41-3.74-6.41-4.49c0-0.41,0.4-49.65,0.45-55.12c1.24,0.93,3.31,1.34,6.43,1.26
	c2.98-0.06,4.69-1,5.66-2.01V138.26z M175.04,79.88c-0.33,0.05-0.58,0.32-0.58,0.66v2.25c-2.78-0.3-3.44-1.24-3.68-1.97
	c-0.08-0.24-0.11-0.88,0.35-1.53c0.47-0.68,1.59-1.51,4.17-1.6h0.28c1.11,0,1.51,0.23,1.53,0.37v0.03
	C177.13,78.61,175.91,79.77,175.04,79.88z M177.1,80.28v2.59c-0.23,0.01-0.46,0.02-0.68,0.02c-0.21,0-0.43-0.01-0.63-0.02v-1.83
	C176.22,80.88,176.68,80.61,177.1,80.28z M178.43,82.76v-4.83c0-0.09-0.02-0.18-0.05-0.26c-0.2-0.69-0.95-1.37-3.13-1.31
	c-3.12,0.11-4.56,1.24-5.22,2.17c-0.49,0.7-0.64,1.44-0.63,2.04v0.01c0,0.92-0.08,9.95-0.17,20.6c-0.18-0.53-0.67-0.9-1.25-0.9
	h-0.16c-0.73,0.03-1.31,0.64-1.28,1.38c0.03,0.72,0.62,1.28,1.33,1.28h0.05l0.09-0.01c0.57-0.01,1.03-0.37,1.21-0.87
	c-0.03,4.25-0.07,8.73-0.1,13.02c-0.49,0.21-0.82,0.71-0.81,1.28c0.02,0.52,0.33,0.96,0.79,1.16c-0.06,6.04-0.11,11.55-0.13,15.34
	c-10.35-0.49-23.79,4.93-38.01,10.67c-1.32,0.54-2.65,1.08-3.99,1.6l0.36-12.13c0.61-0.31,0.87-1.05,0.6-1.69
	c-0.12-0.27-0.3-0.48-0.53-0.62l0.85-29.16c0.05,0.01,0.1,0.03,0.15,0.03c0.17,0,0.34-0.04,0.5-0.1l0.21-0.09
	c0.67-0.29,1-1.07,0.71-1.74c-0.25-0.6-0.89-0.91-1.5-0.78l0.26-8.8c1.19-0.02,2.17-0.97,2.23-2.15c2.85-1.09,5.53-2.18,7.98-3.23
	c1.31-0.56,2.64-1.13,3.95-1.71c8.61-3.77,17.53-7.65,28.36-8.41c6.2-0.44,9.06,0.94,10.36,2.18c1.32,1.25,1.33,2.57,1.33,2.64
	C182.79,79.51,182.58,82.18,178.43,82.76z M76.58,127.83c-0.14,0.05-0.29,0.07-0.43,0.07c-0.55,0-1.07-0.35-1.26-0.9
	c-0.24-0.7,0.13-1.45,0.82-1.69l0.13-0.04c0.7-0.24,1.49,0.12,1.73,0.81c0.23,0.7-0.09,1.43-0.79,1.67c0,0-0.09,0.03-0.09,0.03
	L76.58,127.83z M162.98,101.04l-0.13,0.04c-0.69,0.24-1.06,1-0.82,1.69c0.19,0.55,0.71,0.9,1.26,0.9c0.14,0,0.29-0.02,0.43-0.07
	l0.12-0.04l0.08-0.03c0.7-0.24,1.02-0.98,0.79-1.67C164.47,101.17,163.68,100.81,162.98,101.04 M162.51,88.03
	c0.14,0,0.29-0.02,0.43-0.07l0.12-0.04c0,0,0.09-0.03,0.09-0.03c0.69-0.24,1.02-0.98,0.79-1.67c-0.24-0.69-1.03-1.05-1.73-0.81
	l-0.13,0.04c-0.69,0.24-1.06,1-0.82,1.69C161.45,87.68,161.96,88.03,162.51,88.03 M70.58,111.41c0.1,0.03,0.21,0.04,0.31,0.04
	c0.6,0,1.15-0.41,1.29-1.02c0.17-0.72-0.27-1.43-0.98-1.6l-0.09-0.02c-0.71-0.18-1.43,0.25-1.61,0.97
	c-0.18,0.71,0.25,1.43,0.97,1.61L70.58,111.41z M88.91,112.6c0.03,0,0.05,0,0.07,0l0.23-0.01c0.73-0.04,1.29-0.67,1.25-1.41
	c-0.04-0.73-0.67-1.29-1.41-1.25l-0.21,0.01c-0.73,0.04-1.3,0.66-1.26,1.4C87.62,112.05,88.21,112.6,88.91,112.6 M98.01,111.58
	c0.07,0,0.15-0.01,0.22-0.02l0.22-0.04c0.72-0.12,1.21-0.81,1.09-1.53c-0.12-0.72-0.81-1.21-1.53-1.09l-0.22,0.04
	c-0.72,0.12-1.21,0.81-1.09,1.53C96.81,111.12,97.37,111.58,98.01,111.58 M75.02,112.17l0.22,0.03c0.05,0.01,0.11,0.01,0.17,0.01
	c0.66,0,1.23-0.49,1.32-1.17c0.09-0.73-0.43-1.39-1.16-1.48l-0.21-0.03c-0.73-0.09-1.39,0.42-1.49,1.15
	C73.77,111.41,74.29,112.07,75.02,112.17 M84.33,112.73h0.23c0.73-0.01,1.32-0.6,1.32-1.34c0-0.73-0.6-1.32-1.33-1.32h-0.01h-0.21
	c-0.73,0-1.33,0.6-1.33,1.33C83,112.14,83.59,112.73,84.33,112.73 M79.67,112.6l0.23,0.01c0.03,0,0.05,0,0.07,0
	c0.7,0,1.29-0.55,1.33-1.26c0.04-0.73-0.52-1.36-1.26-1.4l-0.21-0.01c-0.72-0.03-1.36,0.51-1.41,1.25
	C78.38,111.92,78.94,112.55,79.67,112.6 M93.47,112.21c0.05,0,0.1,0,0.15-0.01l0.22-0.03c0.73-0.08,1.25-0.74,1.17-1.47
	c-0.08-0.73-0.74-1.26-1.47-1.17l-0.22,0.03c-0.73,0.08-1.25,0.74-1.17,1.47C92.23,111.71,92.8,112.21,93.47,112.21 M132.63,99.79
	c0.17,0,0.34-0.03,0.51-0.1l0.21-0.09c0.68-0.29,0.99-1.06,0.71-1.74c-0.29-0.67-1.06-0.99-1.74-0.71l-0.2,0.08
	c-0.68,0.28-1,1.06-0.72,1.74C131.62,99.49,132.11,99.79,132.63,99.79 M136.85,98.01c0.17,0,0.35-0.04,0.52-0.11l0.19-0.08
	c0.68-0.29,0.99-1.07,0.71-1.74c-0.29-0.67-1.06-0.99-1.74-0.71l-0.21,0.09c-0.67,0.29-0.99,1.07-0.7,1.75
	C135.85,97.7,136.34,98.01,136.85,98.01 M102.51,110.7c0.1,0,0.2-0.01,0.29-0.03l0.21-0.05c0.72-0.16,1.17-0.87,1.01-1.59
	c-0.16-0.72-0.87-1.16-1.59-1.01l-0.21,0.05c-0.72,0.16-1.17,0.87-1.01,1.59C101.35,110.28,101.9,110.7,102.51,110.7 M106.95,109.58
	c0.12,0,0.24-0.02,0.36-0.05l0.22-0.06c0.71-0.2,1.12-0.94,0.91-1.64c-0.2-0.71-0.94-1.11-1.64-0.91l-0.2,0.06
	c-0.71,0.2-1.12,0.93-0.92,1.63C105.83,109.2,106.37,109.58,106.95,109.58 M111.33,108.23c0.14,0,0.29-0.02,0.43-0.07l0.21-0.07
	c0.69-0.24,1.06-1,0.82-1.69c-0.24-0.7-1-1.06-1.69-0.82l-0.2,0.07c-0.7,0.24-1.06,0.99-0.83,1.69
	C110.26,107.88,110.77,108.23,111.33,108.23 M153.85,90.95c0.17,0,0.33-0.03,0.49-0.09l0.13-0.05c0.68-0.27,1.02-1.04,0.76-1.72
	c-0.27-0.68-1.04-1.02-1.72-0.76l-0.12,0.05l-0.08,0.03c-0.68,0.26-0.99,1.02-0.72,1.7C152.79,90.64,153.31,90.95,153.85,90.95
	 M158.09,89.4c0.14,0,0.29-0.02,0.43-0.07l0.12-0.04c0,0,0.09-0.03,0.09-0.03c0.69-0.24,1.02-0.98,0.79-1.67
	c-0.24-0.69-1.03-1.05-1.73-0.81l-0.13,0.04c-0.7,0.24-1.06,1-0.83,1.69C157.02,89.06,157.54,89.4,158.09,89.4 M141.07,96.21
	c0.17,0,0.35-0.04,0.52-0.11l0.19-0.08c0.68-0.29,0.99-1.07,0.71-1.74c-0.29-0.67-1.06-0.99-1.74-0.71l-0.21,0.09
	c-0.67,0.29-0.99,1.07-0.7,1.75C140.07,95.91,140.55,96.21,141.07,96.21 M115.63,106.66c0.16,0,0.32-0.03,0.47-0.09l0.19-0.08
	c0.69-0.25,1.04-1.02,0.78-1.71c-0.26-0.69-1.02-1.04-1.71-0.78l-0.21,0.08c-0.68,0.26-1.03,1.03-0.77,1.72
	C114.6,106.34,115.1,106.66,115.63,106.66 M145.29,94.43c0.17,0,0.34-0.03,0.51-0.1l0.21-0.09c0.67-0.29,0.99-1.07,0.7-1.74
	c-0.29-0.67-1.07-0.99-1.75-0.7l-0.19,0.08c-0.68,0.28-1,1.06-0.72,1.74C144.28,94.12,144.77,94.43,145.29,94.43 M149.53,92.67
	c0.17,0,0.34-0.03,0.5-0.1l0.19-0.08c0.68-0.27,1.01-1.05,0.74-1.73c-0.28-0.68-1.05-1.01-1.73-0.73l-0.21,0.08
	c-0.68,0.28-1,1.05-0.73,1.73C148.51,92.36,149,92.67,149.53,92.67 M166.99,87.3c0.02,0,0.03,0,0.05,0l0.11-0.01
	c0.73-0.03,1.31-0.64,1.28-1.38c-0.03-0.73-0.66-1.31-1.37-1.28l-0.11,0.01c-0.73,0.03-1.31,0.64-1.28,1.37
	C165.68,86.73,166.27,87.3,166.99,87.3 M73.06,126.07c0.17-0.71-0.27-1.43-0.98-1.6l-0.09-0.02c-0.71-0.18-1.43,0.25-1.61,0.96
	c-0.18,0.71,0.25,1.43,0.96,1.61l0.12,0.03c0.1,0.03,0.21,0.04,0.31,0.04C72.37,127.09,72.92,126.68,73.06,126.07 M86.76,127.05
	c0-0.73-0.59-1.33-1.33-1.33h-0.22c-0.74,0-1.33,0.6-1.33,1.33c0,0.73,0.59,1.33,1.33,1.33h0.22
	C86.17,128.38,86.76,127.78,86.76,127.05 M82.18,127.01c0.04-0.73-0.52-1.36-1.25-1.41l-0.22-0.01c-0.74-0.05-1.36,0.51-1.41,1.25
	c-0.04,0.73,0.51,1.36,1.25,1.41l0.22,0.01c0.03,0,0.05,0,0.08,0C81.55,128.26,82.13,127.71,82.18,127.01 M91.34,126.84
	c-0.04-0.73-0.65-1.29-1.39-1.26l-0.23,0.01c-0.73,0.04-1.29,0.67-1.25,1.41c0.04,0.71,0.63,1.25,1.33,1.25c0.03,0,0.05,0,0.08,0
	l0.2-0.01C90.81,128.2,91.37,127.57,91.34,126.84 M133.2,112.8l-0.2,0.08c-0.68,0.28-1,1.06-0.72,1.74
	c0.21,0.51,0.71,0.82,1.23,0.82c0.17,0,0.34-0.03,0.51-0.1l0.21-0.09c0.68-0.29,0.99-1.06,0.71-1.74
	C134.66,112.84,133.88,112.52,133.2,112.8 M108.4,125.13c0.71-0.19,1.13-0.92,0.93-1.63c-0.19-0.71-0.92-1.13-1.63-0.93l-0.22,0.06
	c-0.71,0.2-1.12,0.94-0.92,1.64c0.17,0.59,0.7,0.97,1.28,0.97c0.12,0,0.24-0.02,0.36-0.05L108.4,125.13z M104.9,124.67
	c-0.17-0.72-0.88-1.16-1.59-1l-0.2,0.04c-0.72,0.16-1.17,0.87-1.01,1.58c0.14,0.62,0.69,1.04,1.3,1.04c0.09,0,0.19-0.01,0.29-0.03
	l0.23-0.05C104.62,126.1,105.07,125.39,104.9,124.67 M145.86,107.44l-0.19,0.08c-0.68,0.28-1,1.06-0.72,1.74
	c0.21,0.51,0.71,0.82,1.23,0.82c0.17,0,0.34-0.03,0.51-0.1l0.21-0.09c0.67-0.29,0.99-1.07,0.7-1.75
	C147.31,107.46,146.53,107.15,145.86,107.44 M154.39,103.98l-0.12,0.04c0,0-0.08,0.03-0.08,0.03c-0.68,0.26-0.99,1.02-0.72,1.7
	c0.2,0.52,0.72,0.84,1.26,0.84c0.17,0,0.33-0.03,0.49-0.09l0.13-0.05c0.68-0.27,1.02-1.04,0.76-1.72
	C155.84,104.05,155.07,103.71,154.39,103.98 M150.12,105.68l-0.21,0.08c-0.68,0.28-1,1.05-0.73,1.73c0.21,0.51,0.71,0.82,1.23,0.82
	c0.17,0,0.34-0.03,0.5-0.1l0.19-0.08c0.68-0.27,1.01-1.05,0.74-1.73C151.57,105.73,150.8,105.4,150.12,105.68 M112.85,123.74
	c0.69-0.23,1.07-0.99,0.83-1.69c-0.23-0.7-0.99-1.07-1.69-0.83l-0.21,0.07c-0.69,0.24-1.07,0.99-0.83,1.69
	c0.19,0.55,0.71,0.9,1.26,0.9c0.14,0,0.29-0.02,0.43-0.07L112.85,123.74z M141.64,109.22l-0.21,0.09c-0.67,0.29-0.99,1.07-0.7,1.75
	c0.22,0.5,0.71,0.8,1.22,0.8c0.17,0,0.35-0.03,0.52-0.11l0.19-0.08c0.68-0.29,0.99-1.06,0.71-1.74
	C143.1,109.25,142.32,108.93,141.64,109.22 M137.42,111.02l-0.21,0.09c-0.67,0.29-0.99,1.07-0.7,1.74c0.22,0.5,0.71,0.8,1.22,0.8
	c0.17,0,0.35-0.03,0.52-0.11l0.19-0.08c0.68-0.29,0.99-1.06,0.71-1.74C138.88,111.05,138.1,110.73,137.42,111.02 M95.89,126.35
	c-0.09-0.73-0.75-1.26-1.48-1.16l-0.2,0.02c-0.73,0.08-1.26,0.73-1.18,1.46c0.07,0.68,0.65,1.19,1.32,1.19c0.05,0,0.1,0,0.14-0.01
	l0.23-0.03C95.46,127.74,95.98,127.08,95.89,126.35 M117.2,122.14c0.68-0.26,1.03-1.03,0.77-1.71c-0.26-0.69-1.03-1.03-1.72-0.77
	l-0.21,0.08c-0.68,0.26-1.03,1.03-0.77,1.72c0.2,0.53,0.71,0.85,1.24,0.85c0.16,0,0.32-0.03,0.47-0.09L117.2,122.14z M100.42,125.64
	c-0.12-0.73-0.81-1.21-1.53-1.09l-0.22,0.04c-0.72,0.12-1.21,0.81-1.09,1.53c0.11,0.65,0.67,1.11,1.31,1.11
	c0.07,0,0.15-0.01,0.22-0.02l0.21-0.04C100.06,127.05,100.54,126.37,100.42,125.64 M158.67,102.42l-0.13,0.04
	c-0.7,0.24-1.06,1-0.82,1.69c0.19,0.55,0.71,0.9,1.26,0.9c0.14,0,0.29-0.02,0.43-0.07l0.12-0.04c0,0,0.08-0.03,0.09-0.03
	c0.69-0.24,1.02-0.98,0.78-1.67C160.16,102.54,159.37,102.18,158.67,102.42 M128.98,114.57l-0.19,0.08
	c-0.68,0.28-1.01,1.05-0.73,1.73c0.21,0.51,0.71,0.82,1.23,0.82c0.17,0,0.34-0.03,0.5-0.1l0.21-0.09c0.67-0.29,0.99-1.07,0.71-1.74
	C130.43,114.6,129.65,114.29,128.98,114.57 M73.67,140.66l-0.08-0.02c-0.71-0.18-1.43,0.26-1.6,0.97c-0.18,0.71,0.26,1.43,0.97,1.61
	l0.13,0.03c0.1,0.02,0.2,0.03,0.29,0.03c0.61,0,1.16-0.42,1.29-1.04C74.83,141.53,74.38,140.82,73.67,140.66 M142.97,123.55
	c-0.68,0.27-1.01,1.05-0.73,1.73c0.21,0.52,0.71,0.83,1.23,0.83c0.17,0,0.34-0.04,0.5-0.11l0.22-0.09c0.67-0.28,0.99-1.06,0.71-1.74
	c-0.29-0.68-1.07-0.99-1.74-0.71L142.97,123.55z M163.82,117.34c0.14,0.61,0.68,1.02,1.28,1.02c0.11,0,0.21-0.01,0.31-0.04l0.2-0.05
	c0.72-0.16,1.16-0.88,1-1.59c-0.17-0.71-0.88-1.16-1.59-0.99l-0.23,0.05C164.09,115.91,163.64,116.63,163.82,117.34 M155.95,118.47
	l-0.08,0.04c-0.69,0.25-1,0.99-0.75,1.68c0.19,0.54,0.72,0.87,1.27,0.87c0.16,0,0.31-0.03,0.47-0.08l0.14-0.05
	c0.68-0.26,1.04-1.02,0.78-1.71c-0.26-0.69-1.02-1.04-1.71-0.78L155.95,118.47z M160.28,117.01c-0.7,0.22-1.09,0.98-0.86,1.68
	c0.18,0.56,0.7,0.92,1.26,0.92c0.14,0,0.28-0.02,0.41-0.06l0.2-0.07c0.7-0.22,1.04-0.95,0.83-1.65c-0.22-0.7-1.01-1.08-1.71-0.86
	L160.28,117.01z M147.24,121.8c-0.68,0.27-1.01,1.04-0.74,1.73c0.21,0.52,0.71,0.84,1.24,0.84c0.16,0,0.33-0.04,0.49-0.1l0.21-0.08
	c0.68-0.28,1.01-1.05,0.73-1.73c-0.28-0.68-1.05-1-1.74-0.73L147.24,121.8z M151.54,120.12c-0.68,0.26-1.03,1.03-0.77,1.71
	c0.2,0.53,0.71,0.86,1.24,0.86c0.16,0,0.32-0.03,0.48-0.09l0.21-0.08c0.68-0.27,1.02-1.05,0.75-1.73c-0.26-0.68-1.04-1.02-1.72-0.75
	L151.54,120.12z M113.5,135.95l-0.21,0.08c-0.68,0.27-1.02,1.05-0.75,1.73c0.21,0.52,0.71,0.84,1.24,0.84
	c0.16,0,0.33-0.03,0.49-0.09l0.2-0.08c0.68-0.26,1.03-1.03,0.76-1.71C114.96,136.03,114.19,135.68,113.5,135.95 M100.52,139.88
	l-0.21,0.04c-0.72,0.15-1.18,0.85-1.04,1.57c0.13,0.63,0.68,1.06,1.3,1.06c0.09,0,0.18-0.01,0.26-0.03l0.21-0.04
	c0.73-0.15,1.19-0.85,1.04-1.57C101.94,140.2,101.23,139.74,100.52,139.88 M96.07,140.71l-0.23,0.04c-0.73,0.11-1.22,0.79-1.11,1.51
	c0.1,0.65,0.66,1.13,1.31,1.13c0.07,0,0.14-0.01,0.21-0.02l0.2-0.03c0.73-0.1,1.23-0.78,1.12-1.5
	C97.47,141.11,96.8,140.6,96.07,140.71 M78.05,141.31l-0.2-0.03c-0.73-0.08-1.38,0.45-1.46,1.18c-0.08,0.74,0.44,1.39,1.18,1.46
	l0.23,0.03c0.04,0.01,0.09,0.01,0.13,0.01c0.67,0,1.26-0.51,1.32-1.2C79.31,142.02,78.77,141.37,78.05,141.31 M87.08,141.57
	l-0.24,0.01c-0.74,0.03-1.31,0.64-1.29,1.37c0.03,0.72,0.62,1.28,1.33,1.28h0.05l0.2-0.01c0.73-0.02,1.31-0.63,1.29-1.35
	C88.42,142.13,87.81,141.59,87.08,141.57 M82.56,141.59l-0.22-0.01c-0.74-0.05-1.35,0.54-1.37,1.28c-0.03,0.74,0.55,1.35,1.28,1.38
	h0.27c0.71,0,1.3-0.56,1.33-1.28C83.87,142.23,83.29,141.61,82.56,141.59 M138.7,125.32c-0.67,0.28-0.99,1.06-0.7,1.74
	c0.21,0.51,0.7,0.81,1.22,0.81c0.17,0,0.35-0.04,0.51-0.11l0.19-0.08c0.67-0.27,1-1.05,0.72-1.74c-0.27-0.67-1.04-1-1.73-0.72
	L138.7,125.32z M130.22,128.91c-0.67,0.28-0.99,1.06-0.7,1.74c0.21,0.5,0.7,0.81,1.22,0.81c0.17,0,0.35-0.04,0.51-0.11l0.21-0.09
	c0.67-0.29,0.98-1.07,0.7-1.75c-0.29-0.67-1.07-0.98-1.74-0.7L130.22,128.91z M134.46,127.11c-0.68,0.28-0.99,1.06-0.71,1.74
	c0.21,0.5,0.71,0.81,1.22,0.81c0.18,0,0.34-0.04,0.51-0.11l0.21-0.09c0.67-0.29,0.98-1.07,0.7-1.75c-0.29-0.67-1.07-0.98-1.74-0.7
	L134.46,127.11z M109.25,137.5l-0.21,0.07c-0.7,0.22-1.08,0.98-0.85,1.67c0.18,0.56,0.7,0.91,1.26,0.91c0.14,0,0.27-0.02,0.42-0.06
	l0.2-0.07c0.7-0.22,1.08-0.98,0.86-1.68C110.69,137.65,109.95,137.28,109.25,137.5 M104.91,138.81l-0.21,0.06
	c-0.71,0.19-1.13,0.92-0.94,1.63c0.16,0.6,0.7,0.99,1.28,0.99c0.11,0,0.23-0.02,0.35-0.05l0.21-0.06c0.71-0.19,1.13-0.92,0.94-1.63
	C106.34,139.04,105.62,138.63,104.91,138.81 M91.59,141.27l-0.23,0.03c-0.73,0.07-1.27,0.72-1.2,1.45c0.07,0.69,0.65,1.2,1.33,1.2
	c0.04,0,0.08,0,0.12-0.01l0.2-0.02c0.73-0.06,1.28-0.7,1.21-1.43C92.96,141.75,92.33,141.22,91.59,141.27"/>
</svg>
